<svg xmlns="http://www.w3.org/2000/svg" width="32" height="32" viewBox="0 0 32 32">
  <rect width="32" height="32" fill="#e74c3c" rx="6"/>
  <g fill="white" transform="translate(6,6)">
    <path d="M10.2 6.6c.2-.5.3-1 .3-1.6 0-2.2-1.8-4-4-4s-4 1.8-4 4 1.8 4 4 4c.6 0 1.1-.1 1.6-.3L10 11l-1.9 1.9c-.5-.2-1-.3-1.6-.3-2.2 0-4 1.8-4 4s1.8 4 4 4 4-1.8 4-4c0-.6-.1-1.1-.3-1.6L12 13.2l6 6h2.5v-.9L10.2 6.6zM6.5 8c-1.1 0-2-.9-2-2s.9-2 2-2 2 .9 2 2-.9 2-2 2zm0 10c-1.1 0-2-.9-2-2s.9-2 2-2 2 .9 2 2-.9 2-2 2zm5-6c-.3 0-.5-.2-.5-.5s.2-.5.5-.5.5.2.5.5-.2.5-.5.5zM18 2l-4 4 1.5 1.5L20 3V2z"/>
  </g>
</svg>
